# xmcd
#
# Track frame offsets:
#	150
#	32304
#	48816
#	60334
#	74164
#	87174
#	106761
#	122339
#	141114
#	155046
#	171012
#	188823
#	204524
#
# Disc length: 3017 seconds
#
# Revision: 0
# Processed by: cddbd v1.5.2PL0 Copyright (c) Steve Scherf et al.
# Submitted via: EasyCDDAExtractor 12.1.0.1
#
DISCID=a50bc70d
DTITLE=Jeannie Reynolds - Cherries, Bananas And Other Fine Things
DYEAR=2010
DGENRE=Soul
TTITLE0=The Fruit Song
TTITLE1=Hit And Run
TTITLE2=Unyeilding
TTITLE3=The Feelin' Ain't There
TTITLE4=I've Still Got My Pride
TTITLE5=You Want To Get Your Hands On A Woman
TTITLE6=Look What Love Has Done To Me Ma
TTITLE7=I'm Lonely
TTITLE8=I Come Here To Party
TTITLE9=The Phone's Been Jumping All Day (Bonus Track)
TTITLE10=Unwanted Company (Bonus Track)
TTITLE11=Lay Some Lovin' On Me (Bonus Track)
TTITLE12=Love Don't Come Easy For Me Now (Bonus Track)
EXTD=
EXTT0=
EXTT1=
EXTT2=
EXTT3=
EXTT4=
EXTT5=
EXTT6=
EXTT7=
EXTT8=
EXTT9=
EXTT10=
EXTT11=
EXTT12=
PLAYORDER=
